<?xml version="1.0" encoding="UTF-8" standalone="no"?>
<svg
   version="1.1"
   viewBox="-5 -10 100 80"
   id="svg230"
   sodipodi:docname="data-operator.svg"
   width="100"
   height="80"
   inkscape:version="1.2.1 (9c6d41e, 2022-07-14)"
   xmlns:inkscape="http://www.inkscape.org/namespaces/inkscape"
   xmlns:sodipodi="http://sodipodi.sourceforge.net/DTD/sodipodi-0.dtd"
   xmlns="http://www.w3.org/2000/svg"
   xmlns:svg="http://www.w3.org/2000/svg">
  <defs
     id="defs234" />
  <sodipodi:namedview
     id="namedview232"
     pagecolor="#505050"
     bordercolor="#eeeeee"
     borderopacity="1"
     inkscape:showpageshadow="0"
     inkscape:pageopacity="0"
     inkscape:pagecheckerboard="0"
     inkscape:deskcolor="#505050"
     showgrid="false"
     inkscape:zoom="12.949079"
     inkscape:cx="40.427584"
     inkscape:cy="39.423652"
     inkscape:window-width="2016"
     inkscape:window-height="1201"
     inkscape:window-x="1858"
     inkscape:window-y="111"
     inkscape:window-maximized="0"
     inkscape:current-layer="drum-play-group"
     showguides="true"
     inkscape:lockguides="true">
    <sodipodi:guide
       position="50.323649,90.232541"
       orientation="1,0"
       id="guide7063"
       inkscape:locked="true" />
  </sodipodi:namedview>
  <g
     id="head-group">
    <rect
       id="neck"
       width="10"
       height="1.3111886"
       x="40.263985"
       y="31.172241" />
    <rect
       id="head"
       width="22.290207"
       height="15.734263"
       x="34.118881"
       y="13.90263"
       rx="1.9667829" />
    <circle
       style="stroke:#ffffff;stroke-width:1.25;"
       id="right-eye"
       cx="39.638165"
       cy="20.642908"
       r="2.6225829"
       class="invert-stroke" />
    <circle
       style="stroke:#ffffff;stroke-width:1.25;"
       id="left-eye"
       cx="50.879261"
       cy="20.642908"
       r="2.6225829"
       class="invert-stroke" />
    <rect
       id="mouth"
       width="8.5575085"
       height="1.5101484"
       x="40.985229"
       y="25.894444"
       rx="0.4582884"
       style="fill:#ffffff;"
       class="invert-fill" />
    <rect
       id="ear-right"
       width="3.25"
       height="6.5"
       x="29.529722"
       y="18.5"
       rx="0.60000002" />
    <rect
       id="ear-left"
       width="3.25"
       height="6.5"
       x="57.220276"
       y="18.5"
       rx="0.5" />
    <g
       id="antenna-group">
      <circle
         id="antenna-ball"
         cx="45.263985"
         cy="6.4262543"
         r="2.1512663" />
      <path
         d="m 44.083847,12.94227 0.583158,-3.55213 1.17704,0.01186 0.600081,3.549079 z"
         id="antenna" />
    </g>
  </g>
  <g
     id="torso-limbs-group">
    <rect
       id="torso"
       width="15.355358"
       height="15.397588"
       x="37.601978"
       y="34.053867"
       ry="1.6389858" />
    <path
       d="m 48.409936,50.102869 c 0.618053,1.529827 0.679217,1.432737 1.014159,2.212308 l 1.807767,-1.31182 c 0,0 0.405611,0.419079 -0.08733,-0.905657 -0.752434,0.03762 -1.640013,9.45e-4 -2.734593,0.0052 z"
       id="leg-left" />
    <path
       d="m 41.037863,50.106617 -2.770127,-0.0186 c 0,0 -0.608425,5.960005 -0.821903,8.701443 l 0.03841,0.02305 c 0.455841,-0.133165 0.934746,-0.207437 1.434113,-0.222798 0.486575,-0.01024 0.952644,0.02561 1.393137,0.102437 0.208616,-2.709434 0.726369,-8.585535 0.726369,-8.585535 z"
       id="leg-right"
       sodipodi:nodetypes="cccccccc" />
    <path
       d="m 38.853677,59.713904 h -0.117804 c -1.221569,0.0589 -2.245935,0.489132 -3.075655,1.293291 -0.788745,0.770847 -1.24458,1.741389 -1.370061,2.91687 l 0.03841,0.03841 7.078452,-0.04354 c 0.03329,-0.473772 -0.0128,-1.067897 -0.143411,-1.774694 -0.135728,-0.670935 -0.314994,-1.234353 -0.537791,-1.690187 -0.174139,-0.276582 -0.407183,-0.468645 -0.694012,-0.578766 -0.33036,-0.105 -0.724759,-0.158778 -1.178037,-0.161335 z"
       id="right-foot" />
    <g
       id="right-arm-group">
      <path
         d="m 22.402865,23.522647 c -0.708832,0.340458 -2.205305,0.583318 -3.217327,0.1933 1.448444,2.091821 3.788776,9.793776 16.751683,12.349148 0.0024,-1.050476 0.301564,-1.918987 1.298903,-2.442699 C 30.996913,32.113704 23.633826,27.469363 22.402865,23.522647 Z"
         id="right-arm" />
      <path
         id="right-devel-hand"
         d="m 21.893113,12.867188 c -0.41121,0 -0.746094,0.330974 -0.746094,0.738281 v 4.099609 c 0.533919,-0.01242 1.146424,0.01298 1.408203,0.177735 0.02836,0.01783 0.05672,0.03686 0.08398,0.05469 v -4.332031 c 0,-0.407293 -0.334884,-0.738281 -0.746094,-0.738281 z m -5.015625,0.851562 c -0.41121,0 -0.746094,0.330974 -0.746094,0.738281 v 4.921875 c 0,2.127251 1.745427,3.859375 3.892578,3.859375 0.756439,0 1.489612,-0.215754 2.121094,-0.623047 0.205068,-0.132343 0.399474,-0.284596 0.576172,-0.453125 0.217061,-0.206889 0.367917,-0.474843 0.435547,-0.777343 l 0.441406,-1.964844 c 0.0649,-0.2917 -0.05428,-0.591354 -0.300781,-0.763672 -0.0027,-0.0022 -0.0051,-0.0051 -0.0078,-0.0078 -0.0038,-0.0032 -0.365742,-0.318885 -0.832031,-0.613281 -0.370848,-0.233897 -1.741528,-0.145817 -2.238282,-0.0918 -0.0033,5.39e-4 -0.0065,0 -0.0098,0 -0.433032,0 -0.785156,0.348436 -0.785156,0.777344 0,0.428907 0.352668,0.777343 0.785156,0.777343 0.313591,-0.01459 1.366492,-0.05214 1.564453,0.08399 0.0409,0.02809 0.0518,0.08449 0.02344,0.125 -0.02836,0.04051 -0.0841,0.04957 -0.125,0.02148 -0.100895,-0.06914 -0.836773,-0.07995 -1.458985,-0.05078 -0.536655,0 -0.96875,-0.429278 -0.96875,-0.957031 0,-0.05294 0.0049,-0.105473 0.01367,-0.15625 -0.170164,0.201482 -0.425717,0.332031 -0.710938,0.332031 -0.510463,0 -0.923828,-0.412368 -0.923828,-0.917969 v -0.0078 c -5.44e-4,-0.0038 -0.002,-0.0079 -0.002,-0.01172 V 14.46875 c 0,-0.0022 0.002,-0.0037 0.002,-0.0059 0,-0.0022 -0.002,-0.0037 -0.002,-0.0059 0,-0.407293 -0.33293,-0.738282 -0.744141,-0.738282 z m 3.34375,2.123047 c -0.411211,0 -0.746094,0.330974 -0.746094,0.738281 v 1.521485 c 0.176154,-0.205272 0.438141,-0.336273 0.730469,-0.337891 0.05127,-0.0054 0.367641,-0.03707 0.759766,-0.05273 v -1.13086 c 0,-0.407293 -0.33293,-0.738281 -0.744141,-0.738281 z m -1.673828,0.166015 c -0.411211,0 -0.744141,0.332928 -0.744141,0.740235 v 1.210937 c 0,0.0022 -0.0014,0.0051 -0.002,0.0078 5.44e-4,0.0038 0.002,0.0079 0.002,0.01172 0,0.407293 0.333475,0.738281 0.744141,0.738281 0.410666,0 0.744141,-0.330988 0.744141,-0.738281 0,-0.0043 0.0014,-0.0079 0.002,-0.01172 v -1.21875 c 0,-0.407293 -0.334883,-0.740234 -0.746094,-0.740234 z" />
    </g>
    <g
       id="left-arm-group"
       class="arm-group">
      <path
         d="m 52.961727,33.635578 c 1.26738,0.664042 1.288133,0.816512 1.323163,2.640501 5.186784,-2.813743 15.574235,-9.76185 17.06784,-12.374563 -1.331591,0.315959 -2.42029,0.291867 -3.279634,-0.05332 -0.629647,2.221025 -9.603939,6.355765 -15.111369,9.787386 z"
         id="left-arm" />
      <g
         id="left-hand">
        <path
           id="drum-devil-hand"
           d="m 66.657551,18.629569 c 0.0027,-0.0022 0.0055,-0.0038 0.0082,-0.0065 0.0038,-0.0032 0.365947,-0.320326 0.832236,-0.614722 0.370848,-0.233897 1.74143,-0.145851 2.238184,-0.09183 0.0033,5.4e-4 0.0065,5.4e-4 0.0098,5.4e-4 0.433033,0 0.784795,0.34895 0.784795,0.777858 0,0.428908 -0.352307,0.777858 -0.784795,0.777858 -0.313591,-0.01459 -1.366714,-0.05294 -1.564676,0.08319 -0.0409,0.02809 -0.05127,0.08373 -0.0229,0.124241 0.02836,0.04051 0.08453,0.05078 0.125436,0.02269 0.100895,-0.06914 0.835518,-0.08049 1.45773,-0.05132 0.536656,0 0.969675,-0.428908 0.969675,-0.956662 0,-0.05294 -0.0055,-0.104795 -0.01418,-0.155572 0.170164,0.201483 0.425395,0.330587 0.710617,0.330587 0.510464,0 0.9255,-0.411622 0.9255,-0.917223 0,-0.0027 -5.44e-4,-0.0049 -5.44e-4,-0.0076 5.44e-4,-0.0038 0.0011,-0.0081 0.0011,-0.01188 v -3.490061 c 0,-0.0022 -5.45e-4,-0.0038 -5.45e-4,-0.0059 0,-0.0022 5.45e-4,-0.0038 5.45e-4,-0.0059 0,-0.407294 0.33431,-0.738972 0.745521,-0.738972 0.411211,0 0.745521,0.331665 0.745521,0.738972 v 4.922149 c 0,2.127253 -1.746316,3.857901 -3.89347,3.857901 -0.756439,0 -1.489981,-0.214993 -2.121464,-0.622286 -0.205068,-0.132344 -0.398129,-0.284137 -0.574827,-0.452666 -0.217061,-0.206889 -0.368125,-0.475897 -0.435755,-0.778397 l -0.440656,-1.964629 c -0.0649,-0.2917 0.05236,-0.59149 0.298862,-0.763808 z m 5.496819,-0.688663 c -5.44e-4,0.0038 -0.0011,0.0081 -0.0011,0.01188 0,0.407293 -0.33431,0.738419 -0.744977,0.738419 -0.410666,0 -0.744976,-0.331126 -0.744976,-0.738419 0,-0.0043 -5.45e-4,-0.0086 -0.0011,-0.01242 v -1.219184 c 0,-0.407293 0.33431,-0.738972 0.745521,-0.738972 0.411211,0 0.745521,0.331665 0.745521,0.738972 v 1.212699 c 0,0.0022 5.45e-4,0.0043 0.0011,0.007 z m -1.673157,0.13552 c -0.176154,-0.205272 -0.437934,-0.336533 -0.730262,-0.338151 -0.05127,-0.0054 -0.369214,-0.03835 -0.761339,-0.05402 v -1.12952 c 0,-0.407293 0.33431,-0.738972 0.745521,-0.738972 0.411211,0 0.74608,0.331665 0.74608,0.738972 z m -3.080208,-0.218769 c -0.02836,0.01783 -0.05617,0.03565 -0.08344,0.05348 v -4.331668 c 0,-0.407294 0.33431,-0.738972 0.745521,-0.738972 0.411211,0 0.745521,0.331664 0.745521,0.738972 v 4.098933 c -0.533919,-0.01242 -1.145828,0.01459 -1.407608,0.179343 z" />
        <rect
           style="stroke:#ffffff;stroke-width:0.25"
           id="drum-devil-stick"
           width="13.066762"
           height="1.1943612"
           x="-75.493149"
           y="-2.1762094"
           rx="0.63290513"
           transform="matrix(-0.95821272,-0.28605661,-0.28605661,0.95821272,0,0)"
           class="invert-stroke" />
        <path
           d="m 66.657551,18.629569 c 0.0027,-0.0022 0.0055,-0.0038 0.0082,-0.0065 0.0038,-0.0032 0.365947,-0.320326 0.832236,-0.614722 0.370848,-0.233897 1.74143,-0.145851 2.238184,-0.09183 0.0033,5.4e-4 0.0065,5.4e-4 0.0098,5.4e-4 0.433033,0 0.784795,0.34895 0.784795,0.777858 0,0.428908 -0.352307,0.777858 -0.784795,0.777858 -0.313591,-0.01459 -1.366714,-0.05294 -1.564676,0.08319 -0.0409,0.02809 -0.05127,0.08373 -0.0229,0.124241 0.02836,0.04051 0.125436,0.02269 0.125436,0.02269 l -1.484586,1.655122 -0.440656,-1.964629 c -0.0649,-0.2917 0.05236,-0.59149 0.298862,-0.763808 z"
           id="drum-devil-thumb" />
      </g>
    </g>
  </g>
  <g
     id="synth-group">
    <path
       d="m 32.079872,47.351625 c -0.298676,-0.265685 -0.783989,-0.265685 -1.082665,0 l -9.414634,8.3747 -9.413652,-8.3747 c -0.298676,-0.265685 -0.783989,-0.265685 -1.082665,0 -0.298677,0.265684 -0.298677,0.69739 0,0.963075 l 9.413652,8.374699 -9.414633,8.373831 c -0.298676,0.265688 -0.298676,0.697392 0,0.963071 0.150289,0.133689 0.345581,0.200111 0.541799,0.200111 0.196218,0 0.391529,-0.06645 0.541798,-0.199257 l 9.413652,-8.3747 9.413654,8.373828 c 0.150289,0.133689 0.34558,0.200111 0.541798,0.200111 0.196218,0 0.391529,-0.06645 0.541798,-0.199257 0.298677,-0.265688 0.298677,-0.697391 0,-0.96308 l -9.414633,-8.374697 9.414633,-8.373827 c 0.298677,-0.266535 0.298677,-0.697391 0,-0.963926 z"
       id="keyboard-stand" />
    <g
       id="synth-body-group">
      <rect
         style="fill:#ffffff"
         id="synth-body-bg"
         width="2.5498857"
         height="4.4727831"
         x="36.128979"
         y="44.116161"
         ry="1.2140028"
         class="invert-fill" />
      <rect
         id="synth-body"
         width="32.328671"
         height="3.5831516"
         x="5.9318829"
         y="44.525906"
         ry="0.93183106" />
    </g>
    <path
       id="synth-controls"
       d="m 18.214356,41.519572 -0.9375,0.01367 -0.607422,1.533204 h 1.050781 z m -2.208984,0.01758 -0.796875,1.529297 h 0.99414 0.0293 l 0.603516,-1.517578 z m 16.537109,0.002 c -0.03226,-0.0017 -0.06801,-0.0015 -0.105469,0.002 h -0.449218 l 0.953125,1.525391 h 0.958984 L 32.985841,41.80873 c -0.110577,-0.127161 -0.217514,-0.25764 -0.44336,-0.269531 z m -20.158203,0.002 c -0.185709,0 -0.360317,0.07396 -0.46875,0.197266 l -1.167968,1.328029 h 1.007812 l 1.097656,-1.525391 z m 1.003907,0 -1.097657,1.525391 h 0.957032 l 0.953124,-1.525391 z m 1.312499,0 -0.953124,1.525391 h 0.99414 l 0.804687,-1.525391 z m 3.947266,0 -0.513672,1.525391 h 1.072266 l 0.365234,-1.525391 z m 1.320312,0 -0.367187,1.525391 h 1.08789 l 0.220704,-1.525391 z m 1.322266,0 -0.220703,1.525391 h 1.099609 l 0.07227,-1.525391 z m 1.326172,0 -0.07227,1.525391 h 1.101563 l -0.07422,-1.525391 z m 1.330078,0 0.07227,1.525391 h 1.099605 L 24.89795,41.541152 Z m 1.333984,0 0.21875,1.525391 h 1.087891 l -0.365234,-1.525391 z m 1.335938,0 0.365234,1.525391 H 28.0542 l -0.511719,-1.525391 z m 4.025391,0 0.80664,1.525391 h 0.992188 l -0.953125,-1.525391 z m -2.658204,0.01758 0.484375,1.507813 h 1.050782 l -0.582032,-1.498047 z m 1.378907,0.002 0.59375,1.50586 h 0.0293 0.99414 L 30.216309,41.56254 Z m -18.259766,1.697121 c -0.20782,0 -0.404048,0.01812 -0.52539,0.04687 L 9.269044,43.61527 h 1.126953 l 1.230469,-0.357422 z m 1.123047,0 -1.230469,0.357422 h 1.072266 l 1.066406,-0.357422 z m 1.466797,0 -1.064453,0.357422 h 1.111328 l 0.90039,-0.357422 z m 1.460937,0 -0.892578,0.357422 h 1.113281 0.0332 l 0.675782,-0.355469 z m 2.957032,0 -0.574219,0.357422 h 1.199219 l 0.410156,-0.357422 z m 1.476562,0 -0.410156,0.357422 h 1.21875 l 0.246094,-0.357422 z m 1.480469,0 -0.246094,0.357422 h 1.230469 l 0.08203,-0.357422 z m 1.484375,0 -0.08203,0.357422 h 1.232422 l -0.08203,-0.357422 z m 1.488281,0 0.08203,0.357422 h 1.228516 L 25.10498,43.257853 Z m 1.492187,0 0.246094,0.357422 h 1.216797 l -0.408203,-0.357422 z m 6,0 0.902344,0.357422 h 1.111328 l -1.066406,-0.357422 z m 1.507813,0 1.064453,0.357422 h 1.072266 l -1.228516,-0.357422 z m -4.482422,0.0039 0.542969,0.353516 h 1.173828 l -0.650391,-0.34961 z m 1.542969,0.002 0.666016,0.351563 h 0.03125 1.113281 l -0.853516,-0.351604 z m -16.371094,0.552694 -1.042968,0.357422 h 1.300781 0.03711 l 0.791016,-0.353516 z m -4.7363276,0.002 c -0.2428967,0 -0.4714582,0.01617 -0.6132812,0.04492 l -1.5292969,0.310547 h 1.3183593 l 1.4375,-0.355469 z m 1.3124996,0 -1.4374996,0.355469 H 10.12256 l 1.246093,-0.355469 z m 1.716797,0 -1.246094,0.355469 h 1.298829 L 13.128419,43.8184 Z m 5.162109,0 -0.671875,0.355469 h 1.402344 l 0.478516,-0.355469 z m 1.726563,0 -0.480469,0.355469 h 1.423828 l 0.289063,-0.355469 z m 1.730469,0 -0.28711,0.355469 7.183594,0.01367 -0.330078,-0.347656 z m 12.230468,0 1.054688,0.355469 h 1.298828 l -1.246094,-0.355469 z m 1.761719,0 1.244141,0.355469 h 1.253906 L 35.696778,43.8184 Z m -5.238281,0.0039 0.634765,0.351563 h 1.373047 L 30.642091,43.8243 Z m 1.802734,0 0.779297,0.351563 h 0.03711 1.300782 l -0.998047,-0.351563 z" />
  </g>
  <g
     id="drumkit-group">
    <path
       d="m 80.04083,30.035178 v -0.730696 c 0,-0.500841 -0.40648,-0.90732 -0.90732,-0.90732 -0.50084,0 -0.90732,0.406479 -0.90732,0.90732 V 30.498516 59.99415 L 75.03,63.190336 71.83381,59.99415 v -7.662219 l -1.81464,-6.05e-4 v 7.662218 l -3.69098,3.691585 c -0.35446,0.35446 -0.35446,0.928492 0,1.282951 0.522893,0.421584 1.04899,0.23457 1.28356,0 l 2.40742,-2.408029 v 4.111976 c 0,0.500841 0.40648,0.907321 0.90732,0.907321 0.50085,0 0.90732,-0.40648 0.90732,-0.907321 v -4.112581 l 1.91324,1.913237 -0.97023,0.970228 c -0.35446,0.354459 -0.35446,0.928491 0,1.282951 0.522892,0.421584 1.00753,0.27603 1.28356,0 l 4.16702,-4.167021 v 4.111977 c 0,0.500841 0.40648,0.90732 0.90732,0.90732 0.50084,0 0.90732,-0.406479 0.90732,-0.90732 v -4.111372 l 4.16642,4.167021 c 0.17723,0.17723 0.4095,0.265542 0.64177,0.265542 0.23228,0 0.46455,-0.08831 0.64178,-0.265542 0.35446,-0.35446 0.35446,-0.928492 0,-1.282952 L 80.04265,59.993544 Z M 66.23625,58.628934 c 0,5.503806 -4.4616,9.966009 -9.96601,9.966009 -5.50501,0 -9.965994,-4.462203 -9.965994,-9.966009 0,-5.197737 3.979494,-9.461539 9.058674,-9.919432 v -2.965068 h -0.85106 v -1.81464 h 3.51677 l 6.1e-4,1.814037 h -0.85107 v 2.965065 c 5.07797,0.459104 9.05808,4.722906 9.05808,9.920038 z m -1.89146,0 c 0,-4.452524 -3.621953,-8.075153 -8.074483,-8.075153 -4.45252,0 -8.075213,3.62209 -8.075213,8.075219 0,4.45192 3.622016,8.074481 8.075146,8.074481 4.45253,0 8.07455,-3.622023 8.07455,-8.074547 z"
       id="drumkit-frame" />
    <rect
       id="snare-drum"
       width="11.658307"
       height="3.7957749"
       x="65.126099"
       y="47.703083" />
    <rect
       id="low-tom"
       width="6.9622092"
       height="3.7772715"
       x="58.536003"
       y="42.995052" />
    <g
       id="high-tom-group">
      <rect
         style="fill:#ffffff;stroke-width:1.1598"
         id="high-tom-bg"
         width="7.0148787"
         height="5.7334647"
         x="45.961918"
         y="41.907505"
         class="invert-fill" />
      <rect
         id="high-tom"
         width="6.9622092"
         height="3.7772715"
         x="47.039124"
         y="42.942719" />
    </g>
    <circle
       id="kick-drum"
       cx="56.126225"
       cy="58.494545"
       r="6.8389301" />
    <path
       id="hats"
       d="m 79.232422,41.167969 -6.125,1.769531 h 12.251953 z m -6.125,2.21289 6.125,1.769532 6.126953,-1.769532 z" />
    <ellipse
       id="cymbal"
       cx="79.205078"
       cy="32.078564"
       rx="10.991077"
       ry="1.6561897" />
  </g>
  <g
     id="synth-play-group">
    <g
       id="synth-octave-4"
       class="note-group"
       transform="translate(0.27965712)">
      <path
         d="m 15.5368,37.724981 c 0.967803,0.192508 1.086495,0.484922 1.389634,1.318247 4.624004,-3.861213 14.89187,-2.498422 18.743396,-2.678974 0.0024,-0.884956 -0.238186,-1.937573 1.316878,-2.663712 -6.401257,-1.994973 -17.97008,-0.226577 -21.449908,4.024439 z"
         id="octave-4-arm" />
      <path
         d="m 15.812584,38.443908 -0.05433,-0.03231 c -0.333349,-0.20303 -0.709969,-0.251151 -1.128178,-0.144759 -0.381033,0.112664 -0.670905,0.342553 -0.870955,0.691736 -0.283344,0.54359 -0.247744,1.078464 0.107667,1.60528 l 0.01681,-9.9e-4 1.04443,-1.364664 c 0.01756,-0.02282 0.03652,-0.04324 0.05828,-0.05887 0.09216,-0.06811 0.19218,-0.0865 0.300433,-0.05341 0.101042,0.03287 0.170702,0.107853 0.21039,0.227347 0.02137,0.0838 0.01009,0.165739 -0.03214,0.245449 l -1.065958,1.398268 0.01466,0.04373 c 0.338621,0.160336 0.701086,0.175453 1.085348,0.04851 0.181472,-0.06518 0.344676,-0.161558 0.487551,-0.290504 0.08024,-0.06099 0.179202,-0.185679 0.295864,-0.374771 0.09391,-0.169636 0.153348,-0.349757 0.177957,-0.542085 0.0075,-0.06212 0.01173,-0.126286 0.0099,-0.189987 l -0.004,-0.09483 c -0.0046,-0.064 -0.01438,-0.126869 -0.02688,-0.190038 -0.08585,-0.391978 -0.29458,-0.700058 -0.626796,-0.923209 z"
         id="octave-4-hand" />
    </g>
    <g
       id="synth-octave-3"
       class="note-group"
       transform="translate(0.27965712)">
      <path
         d="m 19.74332,37.908253 c 0.987876,-0.128656 1.687121,-0.0065 1.99026,0.826826 4.624004,-3.700631 10.239486,-3.02304 13.870212,-2.76199 -0.02535,-0.898829 0.255358,-1.738017 1.39422,-2.26993 -7.28446,-1.11177 -13.03217,1.218667 -17.254692,4.205094 z"
         id="octave-3-arm" />
      <path
         d="m 20.279994,38.403976 -0.06301,-0.0051 c -0.388698,-0.03545 -0.748013,0.08723 -1.076608,0.366954 -0.292458,0.268977 -0.45144,0.603041 -0.477239,1.004641 -0.01495,0.612822 0.2526,1.077337 0.803719,1.393755 l 0.01466,-0.0083 0.336583,-1.685187 c 0.0057,-0.02822 0.01374,-0.05491 0.02639,-0.07852 0.05274,-0.10174 0.134434,-0.162304 0.246195,-0.180278 0.105191,-0.01499 0.200757,0.02164 0.28902,0.111438 0.05609,0.06582 0.08206,0.144351 0.07925,0.234513 l -0.341109,1.724837 0.03242,0.0328 c 0.374627,-0.0052 0.706696,-0.151283 0.995763,-0.4345 0.134212,-0.138448 0.238281,-0.296859 0.309755,-0.475553 0.04517,-0.0901 0.0791,-0.245629 0.100548,-0.466775 0.0096,-0.193658 -0.01638,-0.381545 -0.079,-0.565052 -0.02063,-0.05907 -0.04509,-0.118542 -0.07479,-0.174925 l -0.04536,-0.08337 c -0.03232,-0.05543 -0.06879,-0.107566 -0.107836,-0.158772 -0.249724,-0.314093 -0.572812,-0.498742 -0.969356,-0.552754 z"
         id="octave-3-hand" />
    </g>
    <g
       id="synth-octave-2"
       class="note-group"
       transform="translate(0.27965712)">
      <path
         d="m 25.260792,38.751943 -0.06172,0.0015 c -0.381582,0.0057 -0.703868,0.147628 -0.96578,0.424657 -0.229188,0.264152 -0.31698,0.572854 -0.263177,0.928281 0.105637,0.540046 0.454463,0.922957 1.047648,1.148791 l 0.01253,-0.0086 -0.0057,-1.51309 c -5.5e-5,-0.02535 0.0025,-0.04955 0.01006,-0.07152 0.0309,-0.09443 0.09778,-0.155409 0.201977,-0.181806 0.09845,-0.02316 0.197733,-2.4e-5 0.300393,0.07053 0.06696,0.05253 0.107334,0.119121 0.122338,0.1986 l 0.0091,1.548392 0.03768,0.02575 c 0.360054,-0.04011 0.6515,-0.199999 0.87463,-0.476351 0.102236,-0.134418 0.171511,-0.28352 0.205395,-0.44736 0.02589,-0.08347 0.02812,-0.223394 0.0055,-0.419802 -0.02867,-0.171126 -0.09053,-0.333801 -0.186834,-0.489147 -0.0315,-0.04995 -0.06669,-0.09991 -0.106389,-0.14663 l -0.06008,-0.06896 c -0.04203,-0.04563 -0.08738,-0.08801 -0.135036,-0.12932 -0.302219,-0.252378 -0.649789,-0.384025 -1.042566,-0.393881 z"
         id="octave-2-arm" />
      <path
         d="m 36.896847,33.660575 c -8.838015,0.737137 -11.192959,3.20097 -11.695209,4.607925 0.530169,0.0012 1.113736,0.164572 1.357438,0.611732 1.685482,-2.365914 5.441533,-2.678821 9.101649,-2.897635 0.0301,-0.963637 0.322217,-1.771683 1.236122,-2.322022 z"
         id="octave-2-hand" />
    </g>
    <g
       id="synth-octave-1"
       class="note-group"
       transform="translate(0.27965712)">
      <path
         d="m 36.838835,33.688563 c -2.60265,1.060771 -6.28839,2.969918 -7.545788,4.786811 0.459067,0.0012 1.160345,-0.0082 1.555139,0.625049 1.25397,-1.351858 2.91694,-2.225732 5.002033,-2.638727 -0.05314,-0.741665 -0.0922,-1.795771 0.988616,-2.773133 z"
         id="octave-1-arm" />
      <path
         d="m 29.168839,38.968783 -0.05976,0.01553 c -0.370249,0.09248 -0.65174,0.30407 -0.843666,0.633476 -0.162996,0.309412 -0.178161,0.629997 -0.04482,0.963825 0.22587,0.501789 0.652744,0.795179 1.281776,0.879964 l 0.01027,-0.01125 -0.350197,-1.472018 c -0.0058,-0.02467 -0.0089,-0.04882 -0.0065,-0.07193 0.0086,-0.09898 0.05981,-0.173594 0.155257,-0.223032 0.09058,-0.04498 0.192529,-0.04506 0.308562,2.52e-4 0.07716,0.03589 0.131646,0.09154 0.164357,0.165515 l 0.361565,1.505613 0.04255,0.0165 c 0.341453,-0.121068 0.588819,-0.343138 0.743137,-0.663051 0.06893,-0.154171 0.102424,-0.315132 0.0981,-0.482384 0.0062,-0.08717 -0.02351,-0.223927 -0.09029,-0.410014 -0.06691,-0.16009 -0.164177,-0.304407 -0.29334,-0.433732 -0.04206,-0.04145 -0.08769,-0.0821 -0.136992,-0.118541 l -0.0742,-0.05346 c -0.05132,-0.03485 -0.105131,-0.06579 -0.160943,-0.09516 -0.35176,-0.176905 -0.72018,-0.225924 -1.104877,-0.146056 z"
         id="octave-1-hand" />
    </g>
  </g>
  <g
     id="drum-play-group">
    <g
       id="cymbal_hitgroup"
       class="hit-group">
      <path
         d="m 52.841878,33.55962 c 1.112254,0.526152 1.469625,0.685979 1.462916,2.689507 3.954594,-3.373829 7.711206,-5.384206 12.11726,-3.740265 L 68.345309,31.94949 C 65.027248,28.121586 56.220983,29.903965 52.841878,33.55962 Z"
         id="cymbal-arm"
         sodipodi:nodetypes="ccccc" />
      <rect
         id="cymbal-stick"
         width="9.1757393"
         height="1.0471814"
         x="53.967632"
         y="50.543785"
         rx="0.55413955"
         transform="rotate(-16.38247)" />
      <path
         d="m 71.517049,27.108678 1.15035,3.04345 c 0.205647,0.560484 0.418637,0.568291 0.275676,-0.05576 l -0.703431,-3.073221 c -0.157799,-0.634741 -0.90692,-0.401983 -0.722592,0.08555 z m 6.270295,0.573519 -1.698607,2.721346 c -0.317039,0.497027 -0.17944,0.652478 0.231952,0.160365 l 2.025045,-2.423222 c 0.409885,-0.509338 -0.286246,-0.894328 -0.558293,-0.458313 z m -2.878569,-1.600075 -0.38267,3.162164 c -0.07604,0.579841 0.114575,0.673934 0.27789,0.06377 l 0.804742,-3.005224 c 0.154853,-0.625991 -0.638685,-0.727234 -0.700157,-0.22061 z"
         id="cymbal-impact" />
    </g>
    <g
       id="hats_hitgroup"
       class="hit-group">
      <path
         d="m 52.860535,33.523664 c 1.471801,0.763754 1.476218,1.041939 1.443152,2.319668 4.627562,-0.376067 10.738108,1.542935 13.609217,4.376255 0.133205,-0.610134 1.615276,0.07716 2.486816,0.331106 -3.31806,-3.827904 -8.947501,-7.860758 -17.539185,-7.027029 z"
         id="hats-arm"
         sodipodi:nodetypes="ccccc" />
      <rect
         id="hats-stick"
         width="7.1435933"
         height="1.0471814"
         x="76.625771"
         y="20.098383"
         rx="0.43141457"
         transform="rotate(16.157347)" />
      <path
         d="m 77.246127,41.144616 -1.592369,1.376893 c -0.28977,0.255474 -0.41175,0.194499 -0.137394,-0.116361 l 1.350773,-1.531074 c 0.28601,-0.312384 0.634093,0.05001 0.37898,0.270556 z m -3.697921,-1.599676 0.106948,2.068743 c 0.02335,0.379926 -0.102237,0.42604 -0.180076,0.01993 l -0.38291,-1.999516 c -0.07164,-0.415439 0.438854,-0.42051 0.455931,-0.08909 z m 2.113454,-0.02557 -0.768809,1.915198 c -0.137682,0.352988 -0.27394,0.347939 -0.175813,-0.0491 l 0.483082,-1.955604 c 0.107797,-0.403431 0.584703,-0.217277 0.46162,0.08961 z"
         id="hits-impact" />
    </g>
    <g
       id="toms_hitgroup"
       class="hit-group">
      <path
         d="m 54.208429,34.924709 c 0.02399,0.860914 -0.01608,1.562186 2.9e-5,2.317658 2.812914,0.329863 4.411304,2.97101 4.411304,2.97101 l 1.072153,0.395195 c 0,0 -0.518265,-3.776143 -5.483486,-5.683863 z"
         id="toms-arm"
         sodipodi:nodetypes="ccccc" />
      <rect
         id="toms-stick"
         width="5.4420257"
         height="0.75490308"
         x="67.131058"
         y="20.765095"
         rx="0.29974157"
         transform="rotate(17.863431)" />
      <path
         d="m 62.938167,42.296571 1.99396,-0.238294 -0.05391,0.688898 z m -0.03125,-0.469057 1.017628,-0.875841 0.435167,0.589509 z m -0.413868,-0.184824 -0.508896,-0.942269 0.82378,-0.253142 z"
         id="toms-impact" />
    </g>
    <g
       id="snare_hitgroup"
       class="hit-group">
      <path
         d="m 54.056718,34.376987 c 0.352922,0.488031 0.159416,2.171724 0.175526,2.927196 4.593946,0.329863 9.22255,2.598327 12.50319,5.829418 0.46307,-0.659229 0.807204,-0.794514 2.145297,0.321127 -5.112198,-5.177595 -6.8533,-7.885614 -14.824013,-9.077741 z"
         id="snare-arm"
         sodipodi:nodetypes="ccccc" />
      <rect
         id="snare-stick"
         width="6.0764265"
         height="1.0788516"
         x="79.944473"
         y="-4.2448306"
         rx="0.36696643"
         transform="rotate(35.571689)" />
      <path
         d="m 72.622636,47.305387 2.37429,-0.698105 -0.151983,0.702909 z m 0.176875,-0.7587 1.428016,-1.326224 0.569926,0.664913 z m -2.031539,0.702108 -1.935744,0.0044 0.113985,-0.892884 z m 1.455317,-1.287431 -0.550927,-1.614787 0.949876,-0.05699 z"
         id="snare-impact" />
    </g>
    <g
       id="kick_hitgroup">
      <circle
         id="kick-impact-1"
         cx="56.126225"
         cy="58.494545"
         r="1.3978056"
         style="fill:none;stroke:#ffffff;stroke-width:0.204389;stroke-opacity:1" />
      <circle
         id="kick-impact-2"
         cx="56.126225"
         cy="58.494545"
         r="2.7956111"
         style="fill:none;fill-opacity:1;stroke:#ffffff;stroke-width:0.408778;stroke-opacity:1" />
      <circle
         id="kick-impact-3"
         cx="56.126225"
         cy="58.494545"
         r="4.1934166"
         style="fill:none;fill-opacity:1;stroke:#ffffff;stroke-width:0.613167;stroke-opacity:1" />
    </g>
  </g>
</svg>
